<svg xmlns="http://www.w3.org/2000/svg" version="1.1" xmlns:xlink="http://www.w3.org/1999/xlink" xmlns:svgjs="http://svgjs.dev/svgjs" width="1000" height="267" viewBox="0 0 1000 267"><g transform="matrix(1,0,0,1,-0.6060529338913057,0.28849524162009743)"><svg viewBox="0 0 396 106" data-background-color="#ffffff" preserveAspectRatio="xMidYMid meet" height="267" width="1000" xmlns="http://www.w3.org/2000/svg" xmlns:xlink="http://www.w3.org/1999/xlink"><g id="tight-bounds" transform="matrix(1,0,0,1,0.23999696182096386,-0.11453369142969905)"><svg viewBox="0 0 395.52 106.22906738285941" height="106.22906738285941" width="395.52"><g><svg viewBox="0 0 598.2685880411484 160.68343990713822" height="106.22906738285941" width="395.52"><g transform="matrix(1,0,0,1,202.74858804114837,35.795527060168105)"><svg viewBox="0 0 395.52 89.09238578680201" height="89.09238578680201" width="395.52"><g id="textblocktransform"><svg viewBox="0 0 395.52 89.09238578680201" height="89.09238578680201" width="395.52" id="textblock"><g><svg viewBox="0 0 395.52 89.09238578680201" height="89.09238578680201" width="395.52"><g transform="matrix(1,0,0,1,0,0)"><svg width="395.52" viewBox="3.25 -35.5 157.58999633789062 35.5" height="89.09238578680201" data-palette-color="#286ade"><path d="M7.95-23.2L7.95 0 3.25 0 3.25-23Q3.25-28.9 6.43-32.2 9.6-35.5 14.85-35.5L14.85-35.5Q20.45-35.5 23.53-32.3 26.6-29.1 26.6-24.15L26.6-24.15Q26.6-21.05 25.48-18.75 24.35-16.45 22.45-15.2 20.55-13.95 18.4-13.35 16.25-12.75 13.9-12.75L13.9-12.75 10.15-12.75 10.15-17.15 14.45-17.15Q17.8-17.15 19.73-19.18 21.65-21.2 21.65-24.25L21.65-24.25Q21.65-27.25 19.88-29.18 18.1-31.1 14.8-31.1L14.8-31.1Q11.6-31.1 9.78-28.93 7.95-26.75 7.95-23.2L7.95-23.2ZM51.5-4.4L51.5 0 31.6 0 31.6-26.65Q31.6-30.35 33.95-32.6L33.95-32.6Q35.55-34.1 37.55-34.55 39.55-35 42.45-35L42.45-35 51.5-35 51.5-30.6 41.8-30.6Q36.3-30.6 36.3-26L36.3-26 36.3-20.3 47.85-20.3 47.85-15.9 36.3-15.9 36.3-4.4 51.5-4.4ZM69.4-26.3L73.5-10.85 73.8-10.85 77.9-26.3Q79.2-31.3 81.9-33.15 84.59-35 90.05-35L90.05-35 90.05 0 85.34 0 85.34-29.7Q84.05-29.15 83.37-28.15 82.7-27.15 82.09-25.15L82.09-25.15 75.84-3.7 71.45-3.7 65.15-25.15Q64.55-27.2 63.9-28.18 63.25-29.15 61.95-29.7L61.95-29.7 61.95 0 57.25 0 57.25-35Q62.7-35 65.37-33.13 68.05-31.25 69.4-26.3L69.4-26.3ZM101.74-35L101.74 0 97.04 0 97.04-35 101.74-35ZM113.19 0L108.49 0 108.49-22.75Q108.49-28.8 111.47-32.15 114.44-35.5 119.94-35.5L119.94-35.5Q125.49-35.5 128.47-32.8 131.44-30.1 131.44-25.2L131.44-25.2Q131.44-22.05 129.94-20.05 128.44-18.05 124.84-16.9L124.84-16.9 124.84-16.7Q128.59-15.25 129.87-12.58 131.14-9.9 131.14-3.75L131.14-3.75 131.14 0 126.44 0 126.44-6.4Q126.44-10.2 124.29-12.33 122.14-14.45 118.09-14.45L118.09-14.45 115.39-14.45 115.39-18.85 118.24-18.85Q123.04-18.85 124.89-20.8 126.74-22.75 126.74-25.45L126.74-25.45Q126.74-28 124.92-29.55 123.09-31.1 120.09-31.1L120.09-31.1Q116.64-31.1 114.92-29.15 113.19-27.2 113.19-22.75L113.19-22.75 113.19 0ZM141.39-12.8L141.39 0 136.94 0 136.94-22Q136.94-27.4 140.41-31.2 143.89-35 149.39-35L149.39-35 160.84-35 160.84 0 156.14 0 156.14-30.6 149.39-30.6Q145.74-30.6 143.56-28.45 141.39-26.3 141.39-21.6L141.39-21.6 141.39-17.35Q144.19-20.3 149.39-20.3L149.39-20.3 153.94-20.3 153.94-15.9 149.39-15.9Q146.49-15.9 144.66-15.2 142.84-14.5 141.39-12.8L141.39-12.8Z" opacity="1" transform="matrix(1,0,0,1,0,0)" fill="#000000" class="wordmark-text-0" data-fill-palette-color="primary" id="text-0"></path></svg></g></svg></g></svg></g></svg></g><g><svg viewBox="0 0 160.68343990713822 160.68343990713822" height="160.68343990713822" width="160.68343990713822"><g><svg></svg></g><g id="icon-0"><svg viewBox="0 0 160.68343990713822 160.68343990713822" height="160.68343990713822" width="160.68343990713822"><g><path d="M0 80.342c0-44.372 35.97-80.342 80.342-80.342 44.372 0 80.342 35.97 80.341 80.342 0 44.372-35.97 80.342-80.341 80.341-44.372 0-80.342-35.97-80.342-80.341zM80.342 152.649c39.934 0 72.307-32.373 72.307-72.307 0-39.934-32.373-72.307-72.307-72.308-39.934 0-72.307 32.373-72.308 72.308 0 39.934 32.373 72.307 72.308 72.307z" data-fill-palette-color="accent" fill="#000000" stroke="transparent"></path></g><g transform="matrix(1,0,0,1,35.40200129412572,35.69421950531969)"><svg viewBox="0 0 89.87943731888679 89.29500089649885" height="89.29500089649885" width="89.87943731888679"><g><svg xmlns="http://www.w3.org/2000/svg" xmlns:xlink="http://www.w3.org/1999/xlink" version="1.1" x="0" y="0" viewBox="9.866998672485352 11.595000267028809 81.39727783203125 80.86799621582031" enable-background="new 0 0 100 100" xml:space="preserve" height="89.29500089649885" width="89.87943731888679" class="icon-s-0" data-fill-palette-color="accent" id="s-0"><g fill="#286ade" data-fill-palette-color="accent"><path fill-rule="evenodd" clip-rule="evenodd" d="M79.243 53.828c-0.101-0.226-0.208-0.32-0.474-0.32-4.106 0.011-8.212 0.007-12.318 0.008-0.106 0-0.212 0.01-0.325 0.015v6.485h0.381c1.019 0 2.037 0.009 3.056-0.005 0.246-0.004 0.357 0.063 0.429 0.309 0.466 1.601 0.949 3.196 1.426 4.795 0.027 0.091 0.043 0.184 0.065 0.288H26.042c0.005-0.058 0.002-0.091 0.012-0.122 0.503-1.691 1.01-3.383 1.507-5.076 0.055-0.185 0.168-0.19 0.317-0.19 0.834 0.004 1.668 0.002 2.502 0.002h1.011v-6.5h-0.38c-4.074 0-8.147 0.003-12.222-0.008-0.279 0-0.412 0.08-0.526 0.339-2.508 5.664-5.024 11.324-7.542 16.985-0.278 0.625-0.568 1.247-0.854 1.869h77.755C84.83 66.41 82.033 60.12 79.243 53.828z" fill="#000000" data-fill-palette-color="accent"></path><path fill-rule="evenodd" clip-rule="evenodd" d="M9.867 75.345v17.118c0.142-0.004 0.283-0.01 0.421-0.01h77.58c0.007-0.302 0.021-0.448 0.021-0.595 0-5.504-0.008-11.01-0.008-16.514H9.867z" fill="#000000" data-fill-palette-color="accent"></path><path fill-rule="evenodd" clip-rule="evenodd" d="M91.263 11.595H71.616v17.118c0.036-0.004 0.071-0.01 0.106-0.01h19.536c0.002-0.302 0.006-0.448 0.006-0.595C91.265 22.604 91.263 17.099 91.263 11.595z" fill="#000000" data-fill-palette-color="accent"></path><path fill-rule="evenodd" clip-rule="evenodd" d="M63.905 37.26c-0.198 0-0.371 0.019-0.541-0.003-0.493-0.066-0.88 0.121-1.277 0.406-3.692 2.657-7.396 5.298-11.098 7.943-0.789 0.563-1.615 1.049-2.559 1.309-2.144 0.591-4.098-0.508-4.568-2.677-0.46-2.121-0.064-4.09 1.387-5.778 0.329-0.381 0.664-0.758 1.036-1.181-4.265 0-8.46 0-12.667 0 0 8.666 0 17.313 0 25.968 10.106 0 20.185 0 30.287 0C63.905 54.59 63.905 45.95 63.905 37.26z" fill="#000000" data-fill-palette-color="accent"></path><path fill-rule="evenodd" clip-rule="evenodd" d="M47.041 35.101c0.22 0.002 0.267-0.119 0.322-0.281 0.41-1.199 0.852-2.387 1.224-3.598 0.219-0.711 0.674-1.141 1.316-1.423 1.001-0.442 2.058-0.613 3.141-0.5 0.476 0.048 0.96 0.186 1.395 0.381 0.515 0.23 0.656 0.725 0.409 1.234-0.13 0.268-0.311 0.523-0.51 0.747-2.55 2.835-5.106 5.663-7.661 8.495-0.129 0.144-0.27 0.294-0.347 0.466-0.453 1.021-0.586 2.085-0.305 3.172 0.242 0.933 0.924 1.335 1.833 1.021 0.604-0.21 1.2-0.513 1.721-0.883 5.081-3.604 10.145-7.229 15.209-10.855 0.129-0.092 0.243-0.248 0.295-0.398 0.313-0.889 0.596-1.788 0.91-2.676 0.072-0.205 0.199-0.409 0.351-0.565 0.917-0.937 1.845-1.863 2.777-2.784 0.157-0.156 0.23-0.311 0.23-0.538-0.007-3.023-0.004-6.045-0.005-9.068 0-0.116-0.011-0.23-0.018-0.36-0.124-0.007-0.221-0.017-0.315-0.017-3.412-0.001-6.825-0.003-10.239 0.006-0.171 0-0.361 0.063-0.511 0.152-2.355 1.402-4.708 2.808-7.054 4.225-1.509 0.913-3.019 1.828-4.506 2.777-1.315 0.84-2.289 2-2.85 3.455-0.556 1.444-1.035 2.917-1.537 4.383-0.382 1.115-0.747 2.236-1.134 3.398 0.101 0.015 0.151 0.029 0.203 0.029C43.271 35.096 45.156 35.092 47.041 35.101z" fill="#000000" data-fill-palette-color="accent"></path></g></svg></g></svg></g></svg></g></svg></g></svg></g><defs></defs></svg><rect width="395.52" height="106.22906738285941" fill="none" stroke="none" visibility="hidden"></rect></g></svg></g></svg>